<svg width="12" height="20" viewBox="0 0 12 20" fill="none" xmlns="http://www.w3.org/2000/svg">
<path d="M7.32813 19.9609H4.12531C3.59033 19.9609 3.15515 19.5258 3.15515 18.9908V11.7667H1.28656C0.751587 11.7667 0.316406 11.3313 0.316406 10.7965V7.70096C0.316406 7.16599 0.751587 6.7308 1.28656 6.7308H3.15515V5.18066C3.15515 3.64365 3.63779 2.33597 4.55072 1.39923C5.46777 0.458221 6.74936 -0.0390625 8.25693 -0.0390625L10.6996 -0.0350952C11.2336 -0.0341797 11.668 0.401001 11.668 0.935059V3.8092C11.668 4.34418 11.233 4.77936 10.6982 4.77936L9.05359 4.77997C8.55203 4.77997 8.42432 4.88052 8.39701 4.91135C8.35199 4.96246 8.29843 5.10696 8.29843 5.50598V6.73065H10.5746C10.7459 6.73065 10.912 6.77292 11.0546 6.85257C11.3624 7.02454 11.5537 7.3497 11.5537 7.70111L11.5525 10.7967C11.5525 11.3313 11.1173 11.7665 10.5824 11.7665H8.29843V18.9908C8.29843 19.5258 7.8631 19.9609 7.32813 19.9609ZM4.32764 18.7885H7.12579V11.2418C7.12579 10.8846 7.41647 10.594 7.77353 10.594H10.38L10.3811 7.90329H7.77338C7.41632 7.90329 7.12579 7.61276 7.12579 7.25555V5.50598C7.12579 5.04791 7.17233 4.52698 7.5181 4.13544C7.93588 3.66211 8.5943 3.60748 9.05329 3.60748L10.4955 3.60687V1.13709L8.25601 1.13342C5.83322 1.13342 4.32764 2.68433 4.32764 5.18066V7.25555C4.32764 7.61261 4.03711 7.90329 3.68005 7.90329H1.48889V10.594H3.68005C4.03711 10.594 4.32764 10.8846 4.32764 11.2418V18.7885ZM10.6973 1.13739H10.6974H10.6973Z" fill="#E6EAEE"/>
</svg>
