<svg width="21" height="20" viewBox="0 0 21 20" fill="none" xmlns="http://www.w3.org/2000/svg">
<g clip-path="url(#clip0_89_297)">
<path d="M14.0376 9.10132L9.61914 6.68372C9.36508 6.54471 9.06479 6.5499 8.81576 6.69745C8.56659 6.84516 8.41797 7.10608 8.41797 7.39569V12.1894C8.41797 12.4776 8.56567 12.7381 8.81317 12.886C8.94241 12.9632 9.08569 13.0019 9.22928 13.0019C9.36081 13.0019 9.49264 12.9694 9.61395 12.9041L14.0326 10.5282C14.2949 10.387 14.4586 10.1144 14.4598 9.81635C14.4609 9.51834 14.2991 9.24445 14.0376 9.10132ZM9.58999 11.5864V8.0036L12.8923 9.81055L9.58999 11.5864Z" fill="#E6EAEE"/>
<path d="M20.8138 5.99716L20.8129 5.98801C20.796 5.82703 20.6274 4.39514 19.9313 3.66684C19.1267 2.81021 18.2145 2.70615 17.7758 2.65625C17.7395 2.65213 17.7062 2.64832 17.6765 2.64435L17.6415 2.64069C14.9975 2.44843 11.0044 2.42218 10.9644 2.42203L10.9609 2.42188L10.9574 2.42203C10.9174 2.42218 6.92438 2.44843 4.25653 2.64069L4.22128 2.64435C4.1929 2.64816 4.16162 2.65167 4.12759 2.65564C3.69394 2.70569 2.79153 2.80991 1.98465 3.69751C1.32166 4.41803 1.13 5.81924 1.11032 5.97672L1.10803 5.99716C1.10208 6.06415 0.960938 7.65884 0.960938 9.2598V10.7564C0.960938 12.3573 1.10208 13.952 1.10803 14.0192L1.1091 14.0292C1.12604 14.1876 1.29449 15.5933 1.9874 16.3219C2.74393 17.1498 3.7005 17.2594 4.21503 17.3183C4.29636 17.3276 4.36639 17.3355 4.41415 17.3439L4.46039 17.3503C5.98703 17.4956 10.7736 17.5671 10.9765 17.57L10.9826 17.5702L10.9887 17.57C11.0287 17.5699 15.0216 17.5436 17.6656 17.3514L17.7006 17.3477C17.734 17.3433 17.7715 17.3393 17.8127 17.3351C18.244 17.2893 19.1415 17.1942 19.9372 16.3187C20.6002 15.598 20.792 14.1968 20.8116 14.0395L20.8138 14.019C20.8198 13.9519 20.9611 12.3573 20.9611 10.7564V9.2598C20.9609 7.65884 20.8198 6.0643 20.8138 5.99716ZM19.7889 10.7564C19.7889 12.2382 19.6595 13.7642 19.6473 13.9043C19.5976 14.2902 19.3954 15.1767 19.0724 15.5278C18.5743 16.0757 18.0627 16.1301 17.6891 16.1696C17.644 16.1743 17.6022 16.1789 17.5643 16.1836C15.007 16.3686 11.1646 16.3969 10.9876 16.398C10.7891 16.3951 6.07263 16.3229 4.59253 16.1855C4.51669 16.1731 4.43475 16.1636 4.34839 16.1539C3.91031 16.1037 3.31064 16.035 2.84952 15.5278L2.83868 15.5162C2.5213 15.1855 2.32492 14.3565 2.27502 13.9088C2.26572 13.8029 2.13297 12.2589 2.13297 10.7564V9.2598C2.13297 7.77969 2.26205 6.25534 2.27457 6.11237C2.33392 5.65781 2.53992 4.82498 2.84952 4.48837C3.36282 3.9238 3.90405 3.86124 4.26202 3.81989C4.2962 3.81592 4.32809 3.81226 4.35754 3.80844C6.95215 3.62259 10.8221 3.59497 10.9609 3.5939C11.0998 3.59482 14.9684 3.62259 17.5399 3.80844C17.5715 3.81241 17.606 3.81638 17.6431 3.82065C18.0113 3.86261 18.5677 3.92609 19.0785 4.47083L19.0832 4.47586C19.4006 4.80652 19.597 5.65002 19.6469 6.10672C19.6557 6.20667 19.7889 7.75406 19.7889 9.2598V10.7564Z" fill="#E6EAEE"/>
</g>
<defs>
<clipPath id="clip0_89_297">
<rect width="20.0001" height="20" fill="white" transform="translate(0.960938)"/>
</clipPath>
</defs>
</svg>
