<svg width="14" height="18" viewBox="0 0 14 18" fill="none" xmlns="http://www.w3.org/2000/svg">
<path d="M7.34801 0C3.68152 0 0.69873 2.98279 0.69873 6.64928C0.69873 7.85632 1.24006 9.1545 1.26275 9.20926C1.43758 9.62425 1.78256 10.2688 2.03132 10.6467L6.59038 17.5545C6.77696 17.8377 7.0531 18 7.34801 18C7.64293 18 7.91907 17.8377 8.10564 17.5549L12.6651 10.6467C12.9142 10.2688 13.2588 9.62425 13.4337 9.20926C13.4564 9.15489 13.9973 7.85671 13.9973 6.64928C13.9973 2.98279 11.0145 0 7.34801 0ZM12.7124 8.90574C12.5564 9.27771 12.2352 9.87731 12.0119 10.216L7.45245 17.1243C7.36248 17.2608 7.33393 17.2608 7.24397 17.1243L2.68452 10.216C2.46118 9.87731 2.14006 9.27731 1.984 8.90534C1.97735 8.88931 1.481 7.69439 1.481 6.64928C1.481 3.41421 4.11294 0.782269 7.34801 0.782269C10.5831 0.782269 13.215 3.41421 13.215 6.64928C13.215 7.69596 12.7175 8.894 12.7124 8.90574Z" fill="white"/>
<path d="M7.34785 3.12891C5.40665 3.12891 3.82764 4.70831 3.82764 6.64911C3.82764 8.58992 5.40665 10.1693 7.34785 10.1693C9.28904 10.1693 10.8681 8.58992 10.8681 6.64911C10.8681 4.70831 9.28904 3.12891 7.34785 3.12891ZM7.34785 9.38705C5.83846 9.38705 4.60991 8.15889 4.60991 6.64911C4.60991 5.13934 5.83846 3.91117 7.34785 3.91117C8.85723 3.91117 10.0858 5.13934 10.0858 6.64911C10.0858 8.15889 8.85723 9.38705 7.34785 9.38705Z" fill="white"/>
</svg>
