<svg width="21" height="18" viewBox="0 0 21 18" fill="none" xmlns="http://www.w3.org/2000/svg">
<path d="M20.6512 0.986694C20.4069 0.687927 20.041 0.523438 19.6207 0.523438C19.3923 0.523438 19.1503 0.571503 18.9016 0.666565L1.97196 7.12912C1.07352 7.47198 0.952516 7.98651 0.960298 8.2627C0.968079 8.53888 1.11807 9.04578 2.03452 9.33737C2.04001 9.33905 2.0455 9.34073 2.051 9.34225L5.56265 10.3472L7.46176 15.7778C7.7207 16.5182 8.30191 16.9781 8.97879 16.9781C9.40558 16.9781 9.82535 16.7992 10.1928 16.4611L12.3649 14.4611L15.5154 16.9979C15.5157 16.9982 15.5161 16.9984 15.5164 16.9987L15.5463 17.0228C15.5491 17.0249 15.552 17.0272 15.5547 17.0293C15.9049 17.3009 16.2871 17.4444 16.6605 17.4445H16.6607C17.3902 17.4445 17.9711 16.9045 18.1403 16.0689L20.9142 2.37204C21.0256 1.82227 20.9322 1.33032 20.6512 0.986694ZM6.73743 10.1563L13.5125 6.69516L9.29389 11.1777C9.22476 11.2511 9.17578 11.341 9.15167 11.4388L8.33823 14.7338L6.73743 10.1563ZM9.39887 15.599C9.37079 15.6248 9.34256 15.6478 9.31433 15.669L10.069 12.6124L11.4419 13.7179L9.39887 15.599ZM19.7657 2.13934L16.9918 15.8364C16.9651 15.9675 16.8798 16.2725 16.6605 16.2725C16.5522 16.2725 16.4161 16.2134 16.2768 16.1062L12.7068 13.2317C12.7064 13.2313 12.7057 13.2308 12.7051 13.2305L10.581 11.52L16.6816 5.0376C16.8769 4.83008 16.8946 4.51224 16.7235 4.28427C16.5523 4.0563 16.2421 3.98459 15.9884 4.11429L5.9545 9.24033L2.39508 8.22195L19.3195 1.76138C19.4625 1.70676 19.5623 1.69531 19.6207 1.69531C19.6566 1.69531 19.7204 1.69958 19.744 1.72873C19.7751 1.76672 19.8148 1.89627 19.7657 2.13934Z" fill="white"/>
</svg>
