<svg width="32" height="32" viewBox="0 0 32 32" fill="none" xmlns="http://www.w3.org/2000/svg">
<path d="M18.935 10.1418L17.4122 10.1394C15.7014 10.1394 14.5958 11.2716 14.5958 13.024V14.3539H13.0646C12.9323 14.3539 12.8252 14.461 12.8252 14.5931V16.5201C12.8252 16.6521 12.9325 16.7591 13.0646 16.7591H14.5958V21.6215C14.5958 21.7535 14.7029 21.8604 14.8352 21.8604H16.8329C16.9652 21.8604 17.0723 21.7534 17.0723 21.6215V16.7591H18.8626C18.9949 16.7591 19.102 16.6521 19.102 16.5201L19.1027 14.5931C19.1027 14.5297 19.0775 14.4689 19.0326 14.4241C18.9878 14.3792 18.9267 14.3539 18.8632 14.3539H17.0723V13.2265C17.0723 12.6846 17.2017 12.4095 17.9089 12.4095L18.9348 12.4092C19.067 12.4092 19.1741 12.3021 19.1741 12.1702V10.3808C19.1741 10.249 19.0671 10.1421 18.935 10.1418Z" fill="#4267B2"/>
<rect x="0.5" y="0.5" width="31" height="31" rx="15.5" stroke="#E5E6E9"/>
</svg>
