<svg width="32" height="32" viewBox="0 0 32 32" fill="none" xmlns="http://www.w3.org/2000/svg">
<path d="M23.4997 11.4199C22.9477 11.6608 22.3553 11.8242 21.7329 11.8972C22.3684 11.5224 22.8549 10.9279 23.0854 10.2217C22.4893 10.5688 21.8313 10.8208 21.1302 10.9574C20.5688 10.3675 19.7702 10.0001 18.8844 10.0001C17.1851 10.0001 15.8072 11.3571 15.8072 13.0298C15.8072 13.2671 15.8344 13.4988 15.8869 13.7203C13.3299 13.5939 11.0626 12.3873 9.54508 10.554C9.27982 11.0008 9.12891 11.5214 9.12891 12.0772C9.12891 13.1286 9.67255 14.0564 10.4974 14.5991C9.99311 14.5825 9.51883 14.4459 9.10362 14.2188V14.2567C9.10362 15.7244 10.1647 16.9494 11.5715 17.2282C11.3138 17.2965 11.042 17.3344 10.7608 17.3344C10.5621 17.3344 10.3699 17.315 10.1815 17.2781C10.5733 18.4828 11.7093 19.3588 13.0553 19.3828C12.0027 20.1952 10.6755 20.678 9.23391 20.678C8.98553 20.678 8.74088 20.6632 8.5 20.6364C9.86191 21.4977 11.4788 21.9999 13.2165 21.9999C18.8769 21.9999 21.971 17.3824 21.971 13.3779L21.9607 12.9855C22.5652 12.5609 23.0882 12.0273 23.4997 11.4199Z" fill="#1DA1F2"/>
<rect x="0.5" y="0.5" width="31" height="31" rx="15.5" stroke="#E5E6E9"/>
</svg>
