<svg width="32" height="32" viewBox="0 0 32 32" fill="none" xmlns="http://www.w3.org/2000/svg">
<path fill-rule="evenodd" clip-rule="evenodd" d="M25.0641 10.8125C25.1962 10.3442 25.0641 10 24.4354 10H22.3568C21.8283 10 21.5848 10.2973 21.4526 10.6253C21.4526 10.6253 20.3955 13.3652 18.898 15.145C18.4136 15.6602 18.1934 15.8239 17.9291 15.8239C17.7969 15.8239 17.6057 15.6602 17.6057 15.1919V10.8125C17.6057 10.2504 17.4523 10 17.0118 10H13.7454C13.4152 10 13.2166 10.2608 13.2166 10.5081C13.2166 11.041 13.9652 11.1638 14.0424 12.6626V15.9179C14.0424 16.6316 13.9212 16.7611 13.657 16.7611C12.9523 16.7611 11.2383 14.0086 10.2216 10.8594C10.0224 10.2473 9.82251 10 9.29128 10H7.21267C6.61878 10 6.5 10.2973 6.5 10.6253C6.5 11.2107 7.2048 14.1147 9.78123 17.9554C11.4991 20.578 13.9189 22 16.121 22C17.4424 22 17.6057 21.6842 17.6057 21.1403V19.1579C17.6057 18.5263 17.7309 18.4003 18.1491 18.4003C18.4577 18.4003 18.9861 18.5642 20.2194 19.8288C21.6287 21.3274 21.8609 22 22.6538 22H24.7324C25.3263 22 25.6232 21.6842 25.4519 21.061C25.2645 20.4398 24.5916 19.5389 23.6987 18.4706C23.2143 17.8616 22.4875 17.2058 22.2674 16.8781C21.9591 16.4565 22.0471 16.2692 22.2674 15.8947C22.2674 15.8947 24.7998 12.1008 25.0641 10.8127V10.8125Z" fill="#5181B8"/>
<rect x="0.5" y="0.5" width="31" height="31" rx="15.5" stroke="#E5E6E9"/>
</svg>
