<svg width="104" height="104" viewBox="0 0 104 104" fill="none" xmlns="http://www.w3.org/2000/svg">
<circle cx="52" cy="52" r="48" fill="white"/>
<circle cx="52" cy="52" r="51.5" stroke="white"/>
<g clip-path="url(#clip0_89_310)">
<path d="M74.7208 65.6301V62.2213C74.7208 61.5931 74.2127 61.085 73.5847 61.085C72.9568 61.085 72.4486 61.5932 72.4486 62.2213V62.2551C70.4008 59.0804 68.173 56.2366 66.9526 54.7409C66.5565 54.2537 65.841 54.1782 65.3551 54.5788C64.868 54.975 64.796 55.6907 65.1931 56.1767C67.4099 58.8943 69.1621 61.3052 70.5289 63.4155C69.9286 63.223 69.2961 63.5419 69.0994 64.1343C68.9008 64.7302 69.2226 65.3738 69.8172 65.5713L72.3282 66.4086C74.8304 70.9607 75.1045 73.5941 74.3492 74.3489C73.5438 75.1534 70.5861 74.8749 64.907 71.4492C61.4652 69.3733 57.6326 66.5071 53.7153 63.1127C55.3238 61.6582 56.9364 60.1266 58.5334 58.5292C64.2286 52.8326 69.1006 46.9443 72.4487 41.7547V41.7674C72.4487 42.3956 72.9568 42.9037 73.5848 42.9037C74.2127 42.9037 74.7209 42.3955 74.7209 41.7674V38.3585C74.7209 38.2519 74.6767 38.1565 74.6482 38.0565C77.258 33.1427 77.699 29.7756 75.9557 28.0329C72.5765 24.6539 63.6412 30.3421 58.6156 34.034C58.1097 34.4047 58.001 35.116 58.3726 35.622C58.7421 36.1258 59.4532 36.2346 59.9602 35.865C68.1243 29.8694 73.1455 28.4334 74.3492 29.6397C75.0795 30.3702 74.8939 32.8926 72.3023 37.5888L69.8173 38.4173C69.2227 38.6148 68.9009 39.2585 69.0995 39.8543C69.2936 40.4391 69.9126 40.7553 70.5059 40.576C67.2472 45.6181 62.4937 51.3534 56.9271 56.9224C55.2923 58.5573 53.643 60.1169 52.0003 61.5965C50.3575 60.1169 48.7082 58.5573 47.0734 56.9224C41.5065 51.3535 36.753 45.6182 33.4943 40.5761C34.0876 40.7553 34.7065 40.4392 34.9007 39.8544C35.0992 39.2585 34.7775 38.6149 34.1828 38.4174L31.6979 37.5889C29.1062 32.8926 28.9207 30.3702 29.6509 29.6397C30.8579 28.4324 35.8802 29.8706 44.051 35.8739C44.5547 36.2445 45.268 36.1357 45.6386 35.6309C46.0103 35.126 45.9015 34.4147 45.3956 34.0429C40.3678 30.3455 31.4216 24.6506 28.0444 28.0329C26.3012 29.7756 26.7422 33.1428 29.3519 38.0565C29.3235 38.1566 29.2793 38.252 29.2793 38.3585V41.7674C29.2793 42.3956 29.7873 42.9037 30.4154 42.9037C31.0433 42.9037 31.5514 42.3955 31.5514 41.7674V41.7547C34.8995 46.9443 39.7716 52.8326 45.4668 58.5292C47.0638 60.1266 48.6764 61.6582 50.2848 63.1127C46.3677 66.5071 42.535 69.3733 39.0932 71.4492C33.4085 74.8771 30.452 75.149 29.651 74.3489C28.8962 73.5939 29.1702 70.9601 31.6725 66.4083L34.1829 65.5713C34.7776 65.3738 35.0994 64.7301 34.9008 64.1343C34.7041 63.5423 34.0721 63.2234 33.4723 63.4154C34.8331 61.3144 36.5748 58.9164 38.7782 56.2134C39.1743 55.7274 39.101 55.0116 38.6151 54.6143C38.1302 54.2193 37.4147 54.2947 37.0164 54.7774C35.8026 56.2667 33.589 59.0945 31.5514 62.2536V62.2211C31.5514 61.593 31.0434 61.0849 30.4154 61.0849C29.7875 61.0849 29.2793 61.5931 29.2793 62.2211V65.6301C29.2793 65.7522 29.3254 65.863 29.3626 65.9761C27.2322 70.0055 26.0474 73.9592 28.0444 75.9559C28.7412 76.6527 29.6964 77.0001 30.9067 77.0001C33.1566 77.0001 36.2873 75.7961 40.2668 73.3958C43.8805 71.2152 47.9037 68.1952 51.9999 64.6282C56.0962 68.1952 60.1193 71.2152 63.7331 73.3958C67.7125 75.7972 70.8433 77.0012 73.0942 77.0001C74.3035 77.0001 75.2587 76.6528 75.9554 75.9559C77.9524 73.9594 76.7688 70.0072 74.6373 65.9765C74.6746 65.8632 74.7208 65.7522 74.7208 65.6301Z" fill="#1F5CA9"/>
<path d="M40.6367 41.7729C40.6367 42.401 41.145 42.9093 41.7731 42.9093C42.4012 42.9093 42.9095 42.401 42.9095 41.7729C42.9095 41.1459 43.4189 40.6365 44.0459 40.6365C44.6729 40.6365 45.1823 41.1458 45.1823 41.7729C45.1823 42.3999 44.673 42.9093 44.0459 42.9093C43.4178 42.9093 42.9095 43.4175 42.9095 44.0457C42.9095 44.6738 43.4178 45.1821 44.0459 45.1821C44.6729 45.1821 45.1823 45.6914 45.1823 46.3185C45.1823 46.9454 44.673 47.4549 44.0459 47.4549C43.419 47.4549 42.9095 46.9455 42.9095 46.3185C42.9095 45.6903 42.4012 45.1821 41.7731 45.1821C41.145 45.1821 40.6367 45.6901 40.6367 46.3182C40.6367 48.1982 42.1659 49.7273 44.0458 49.7273C45.9257 49.7273 47.4549 48.1982 47.4549 46.3182C47.4549 45.4459 47.1253 44.6492 46.5849 44.0456C47.1253 43.4418 47.4549 42.6451 47.4549 41.7729C47.4549 39.893 45.9257 38.3638 44.0458 38.3638C42.1659 38.3638 40.6367 39.893 40.6367 41.7729Z" fill="#1F5CA9"/>
<path d="M59.9555 49.7265C61.8354 49.7265 63.3646 48.1973 63.3646 46.3174V41.7719C63.3646 39.892 61.8354 38.3628 59.9555 38.3628C58.0756 38.3628 56.5464 39.892 56.5464 41.7719V46.3174C56.5464 48.1973 58.0756 49.7265 59.9555 49.7265ZM58.8192 41.772C58.8192 41.145 59.3285 40.6356 59.9556 40.6356C60.5825 40.6356 61.092 41.1449 61.092 41.772V46.3175C61.092 46.9444 60.5826 47.4539 59.9556 47.4539C59.3286 47.4539 58.8192 46.9445 58.8192 46.3175V41.772Z" fill="#1F5CA9"/>
<path d="M51.995 49.7265C53.8749 49.7265 55.4041 48.1973 55.4041 46.3174C55.4041 44.4375 53.8749 42.9083 51.995 42.9083C51.6459 42.9083 51.3154 42.9764 50.9981 43.0744C51.2548 42.0402 52.0075 40.6356 54.2677 40.6356C54.8958 40.6356 55.4041 40.1273 55.4041 39.4992C55.4041 38.8711 54.8958 38.3628 54.2677 38.3628C49.7733 38.3628 48.5859 42.0792 48.5859 44.0446V46.3173C48.5859 48.1973 50.1151 49.7265 51.995 49.7265ZM51.995 45.1811C52.622 45.1811 53.1314 45.6904 53.1314 46.3175C53.1314 46.9444 52.6221 47.4539 51.995 47.4539C51.368 47.4539 50.8586 46.9444 50.8586 46.3174C50.8586 45.6904 51.368 45.1811 51.995 45.1811Z" fill="#1F5CA9"/>
<path d="M67.9087 38.364C67.9087 37.1112 66.8888 36.0913 65.636 36.0913C64.3831 36.0913 63.3633 37.1112 63.3633 38.364C63.3633 39.6168 64.383 40.6367 65.636 40.6367C66.8888 40.6367 67.9087 39.6168 67.9087 38.364Z" fill="#1F5CA9"/>
</g>
<defs>
<clipPath id="clip0_89_310">
<rect width="50" height="50" fill="white" transform="translate(27 27)"/>
</clipPath>
</defs>
</svg>
