<svg width="20" height="18" viewBox="0 0 20 18" fill="none" xmlns="http://www.w3.org/2000/svg">
<path d="M7.61001 17.2705C4.27199 17.2705 1.63375 16.6873 0.371543 15.6707L0.346976 15.6509L0.324698 15.6286C0.0248632 15.3286 -0.0734034 14.9351 0.0553808 14.5491L0.06713 14.517C0.22338 14.1262 0.606223 13.8632 1.02111 13.8607C1.87499 13.8459 2.62206 13.7442 3.30001 13.5466C2.21862 13.0436 1.46743 12.1728 1.0205 10.9124C0.8702 10.5194 0.9999 10.0836 1.34627 9.82372C1.43172 9.75948 1.52831 9.71096 1.63055 9.67846C1.02965 8.98479 0.585776 8.19546 0.337211 7.36065L0.329429 7.33471L0.324088 7.30816C0.239707 6.88595 0.428458 6.45184 0.774375 6.26492C0.919486 6.1816 1.07711 6.13842 1.23534 6.13476C1.06475 5.76733 0.940696 5.39013 0.867148 5.01064C0.662986 3.95901 0.831443 2.90478 1.36764 1.87725L1.49169 1.62914C1.59103 1.43063 1.78084 1.29116 1.99966 1.25561C2.21847 1.22021 2.44277 1.29253 2.59948 1.44924L2.82546 1.67553C4.61074 3.54717 6.20986 4.43523 8.9746 5.04284C9.09804 3.98159 9.55688 2.99511 10.2971 2.21874C11.178 1.29498 12.3543 0.776634 13.6093 0.758934H13.6175C14.5332 0.758934 15.6691 1.2817 16.356 1.65035C16.9453 1.45748 17.6553 1.15887 18.392 0.843163C18.7367 0.681419 19.1617 0.755425 19.4327 1.02642C19.6983 1.29208 19.772 1.66668 19.631 2.03075C19.5775 2.17983 19.5167 2.32616 19.4492 2.46929C19.55 2.51553 19.6423 2.57824 19.7203 2.65621C19.956 2.89196 20.0543 3.26092 19.9705 3.59631L19.9615 3.6282C19.6793 4.53793 19.137 5.27889 18.4198 5.74398C18.3 12.1223 13.4968 17.2705 7.61001 17.2705ZM1.49627 15.0175C2.68569 15.6904 4.95238 16.0975 7.61001 16.0975C10.1651 16.0975 12.5763 15.0006 14.3993 13.0087C16.2372 11.0005 17.2493 8.3337 17.2493 5.49953V5.46764C17.2493 5.21099 17.3906 4.97677 17.6179 4.85622C18.0792 4.61193 18.4528 4.19582 18.6957 3.66375C18.4451 3.70327 18.1905 3.60271 18.0344 3.39306C17.8529 3.14938 17.8509 2.82024 18.0293 2.57442C18.1256 2.44167 18.2129 2.30358 18.2907 2.16076C17.6546 2.42794 17.0505 2.6675 16.526 2.82665C16.3354 2.88433 16.123 2.86175 15.9489 2.76455C15.0153 2.24438 14.1457 1.9334 13.6214 1.93188C11.6867 1.96148 10.1137 3.61843 10.1137 5.6274C10.1137 5.83508 10.0215 6.02978 9.86114 6.16177C9.70061 6.2936 9.49187 6.3464 9.28802 6.30611C6.10015 5.67806 4.21111 4.73629 2.2467 2.76226C1.96517 3.43685 1.88827 4.11633 2.01842 4.78725C2.15041 5.46688 2.50152 6.14788 3.0339 6.75655C3.23623 6.98757 3.26308 7.31808 3.10073 7.57885C2.93899 7.83871 2.63152 7.96017 2.33596 7.88097C2.10494 7.81902 1.89254 7.73769 1.69112 7.63317C2.10143 8.52444 2.80715 9.34872 3.6943 9.95663C3.95141 10.1329 4.05883 10.4614 3.95568 10.7556C3.85238 11.0502 3.56383 11.2399 3.25194 11.2167C2.91213 11.1915 2.61108 11.127 2.33398 11.0182C2.83141 12.0312 3.62624 12.5886 4.85076 12.8016C5.14236 12.8524 5.36941 13.0827 5.41579 13.3746C5.46233 13.6665 5.31783 13.9558 5.05645 14.0945C4.01275 14.6478 2.872 14.9447 1.49627 15.0175Z" fill="#E6EAEE"/>
</svg>
